<svg width="13" height="17" viewBox="0 0 13 17" fill="none" xmlns="http://www.w3.org/2000/svg">
<path d="M2.49165 8.07214L2.36051 7.56944C2.22937 7.08859 2.14195 6.71703 2.09823 6.41104C2.03266 6.10504 2.01081 5.77719 2.01081 5.42749C2.01081 4.50951 2.22937 3.67896 2.68836 2.95769C3.14735 2.23642 3.78119 1.66815 4.56803 1.25288C5.35487 0.859458 6.22913 0.640892 7.19082 0.640892C8.80821 0.640892 10.1196 1.09988 11.0813 1.97415C12.043 2.87027 12.5894 4.11609 12.7205 5.68977H10.3382C10.207 4.77179 9.90104 4.07238 9.39834 3.54782C8.89564 3.04512 8.19623 2.78284 7.30011 2.78284C6.42584 2.78284 5.72643 3.04512 5.20187 3.54782C4.67731 4.07238 4.41503 4.74993 4.41503 5.58049C4.41503 5.84276 4.43689 6.14876 4.52432 6.49846C4.58989 6.84817 4.67731 7.17602 4.76474 7.50387L4.91774 8.07214H9.35463V9.92995H5.1363C5.1363 10.0392 5.15816 10.1922 5.15816 10.3889C5.15816 10.9791 5.02702 11.5911 4.7866 12.203C4.52432 12.815 4.19647 13.3614 3.75934 13.8204L12.6768 13.8641V16.0717H1.13654V13.9734C1.6611 13.4051 2.07638 12.7495 2.33866 12.05C2.60094 11.3506 2.73208 10.6512 2.71022 9.92995H0.786838V8.07214H2.49165Z" fill="#40AFFF"/>
</svg>
